<svg xmlns="http://www.w3.org/2000/svg" viewBox="0 0 300 200">
  <rect width="300" height="67" fill="#FF0000"/>
  <rect y="67" width="300" height="66" fill="#FFFFFF"/>
  <rect y="133" width="300" height="67" fill="#0035AD"/>
  <g transform="translate(150,100) scale(0.6)">
    <rect x="-42" y="-42" width="84" height="84" fill="none" stroke="#FFFFFF" stroke-width="4"/>
    <rect x="-42" y="-42" width="14" height="14" fill="#FF0000"/>
    <rect x="-28" y="-42" width="14" height="14" fill="#FFFFFF"/>
    <rect x="-14" y="-42" width="14" height="14" fill="#FF0000"/>
    <rect x="0" y="-42" width="14" height="14" fill="#FFFFFF"/>
    <rect x="14" y="-42" width="14" height="14" fill="#FF0000"/>
    <rect x="28" y="-42" width="14" height="14" fill="#FFFFFF"/>
    <rect x="-42" y="-28" width="14" height="14" fill="#FFFFFF"/>
    <rect x="-28" y="-28" width="14" height="14" fill="#FF0000"/>
    <rect x="-14" y="-28" width="14" height="14" fill="#FFFFFF"/>
    <rect x="0" y="-28" width="14" height="14" fill="#FF0000"/>
    <rect x="14" y="-28" width="14" height="14" fill="#FFFFFF"/>
    <rect x="28" y="-28" width="14" height="14" fill="#FF0000"/>
    <rect x="-42" y="-14" width="14" height="14" fill="#FF0000"/>
    <rect x="-28" y="-14" width="14" height="14" fill="#FFFFFF"/>
    <rect x="-14" y="-14" width="14" height="14" fill="#FF0000"/>
    <rect x="0" y="-14" width="14" height="14" fill="#FFFFFF"/>
    <rect x="14" y="-14" width="14" height="14" fill="#FF0000"/>
    <rect x="28" y="-14" width="14" height="14" fill="#FFFFFF"/>
  </g>
</svg>
